<?xml version="1.0" standalone="no"?>
<!DOCTYPE svg PUBLIC "-//W3C//DTD SVG 20010904//EN"
 "http://www.w3.org/TR/2001/REC-SVG-20010904/DTD/svg10.dtd">
<svg version="1.0" xmlns="http://www.w3.org/2000/svg"
 width="500.000000pt" height="500.000000pt" viewBox="0 0 500.000000 500.000000"
 preserveAspectRatio="xMidYMid meet">

<g transform="translate(0.000000,500.000000) scale(0.100000,-0.100000)"
fill="#000000" stroke="none">
<path d="M2301 3178 c5 -10 11 -18 12 -18 2 0 3 8 3 18 0 10 -6 19 -13 19 -8
0 -9 -6 -2 -19z"/>
<path d="M2281 3154 c0 -11 3 -14 6 -6 3 7 2 16 -1 19 -3 4 -6 -2 -5 -13z"/>
<path d="M2265 3100 c-3 -11 -10 -20 -15 -20 -12 0 -72 -119 -65 -131 4 -5 2
-9 -3 -9 -18 0 -44 -134 -49 -250 -8 -168 26 -277 130 -419 61 -85 219 -237
342 -331 139 -107 207 -170 261 -243 44 -59 84 -163 84 -218 0 -16 3 -29 8
-29 18 0 103 66 169 131 118 116 193 243 228 386 23 95 17 243 -13 330 -20 58
-90 188 -97 181 -2 -2 3 -28 11 -58 26 -102 10 -284 -30 -342 -20 -28 -24 -13
-19 80 7 142 -46 318 -153 498 -61 104 -126 194 -135 189 -3 -3 -6 3 -5 13 0
9 -5 16 -12 14 -8 -1 -11 2 -7 9 4 6 -2 24 -14 40 -11 15 -21 33 -21 39 0 6
-4 8 -10 5 -5 -3 -10 1 -10 9 0 9 -9 25 -21 37 -12 12 -19 29 -16 40 3 10 1
19 -4 19 -5 0 -12 12 -15 26 l-7 27 -13 -24 c-10 -19 -14 -21 -18 -9 -5 13
-29 14 -143 12 -86 -2 -140 1 -146 7 -13 13 -54 14 -61 2 -4 -5 6 -14 21 -19
l28 -10 -32 -1 c-27 -1 -33 3 -33 19 0 26 -20 26 -27 0 -5 -18 -7 -18 -28 -4
-21 14 -24 14 -35 -3 -10 -16 -11 -16 -7 5 6 27 -9 29 -18 2z m-30 -100 c3 -5
-1 -10 -9 -10 -9 0 -16 5 -16 10 0 6 4 10 9 10 6 0 13 -4 16 -10z"/>
<path d="M1996 2841 c-10 -11 -15 -25 -10 -32 4 -7 3 -10 -3 -6 -22 14 -186
-204 -256 -341 -61 -119 -87 -214 -94 -345 -10 -188 29 -331 137 -494 153
-233 398 -362 690 -363 116 0 297 38 337 71 25 21 16 99 -22 177 -42 88 -143
194 -290 302 -111 83 -273 235 -334 314 -66 86 -120 182 -147 263 -23 68 -26
94 -25 198 0 119 4 166 14 195 14 40 26 80 23 80 -2 0 -11 -9 -20 -19z"/>
</g>
</svg>
